HIERARCHY
ROOT hip
{
	OFFSET 0.000000 0.000000 0.000000 
	CHANNELS 6 Xposition Yposition Zposition Xrotation Zrotation Yrotation
	JOINT abdomen
	{
		OFFSET 0.000000 3.402643 0.000000 
		CHANNELS 3 Xrotation Zrotation Yrotation
		JOINT chest
		{
			OFFSET 0.000000 8.438565 -0.680529 
			CHANNELS 3 Xrotation Zrotation Yrotation
			JOINT neck
			{
				OFFSET 0.000000 10.207942 -0.272212 
				CHANNELS 3 Xrotation Zrotation Yrotation
				JOINT head
				{
					OFFSET 0.000000 3.130431 0.000000 
					CHANNELS 3 Xrotation Zrotation Yrotation
					End Site
					{
						OFFSET 0.000000 3.130435 0.000000 
					}
				}
			}
			JOINT lCollar
			{
				OFFSET 3.470700 6.669187 -0.816635 
				CHANNELS 3 Yrotation Zrotation Xrotation
				JOINT lShldr
				{
					OFFSET 3.198488 0.000000 0.000000 
					CHANNELS 3 Zrotation Yrotation Xrotation
					JOINT lForeArm
					{
						OFFSET 10.139888 0.000000 0.000000 
						CHANNELS 3 Yrotation Zrotation Xrotation
						JOINT lHand
						{
							OFFSET 8.370511 0.000000 0.000000 
							CHANNELS 3 Zrotation Yrotation Xrotation
							End Site
							{
								OFFSET 4.083176 0.000000 0.000000 
							}
						}
					}
				}
			}
			JOINT rCollar
			{
				OFFSET -3.470700 6.669187 -0.816635 
				CHANNELS 3 Yrotation Zrotation Xrotation
				JOINT rShldr
				{
					OFFSET -3.198488 0.000000 0.000000 
					CHANNELS 3 Zrotation Yrotation Xrotation
					JOINT rForeArm
					{
						OFFSET -10.139888 0.000000 0.000000 
						CHANNELS 3 Yrotation Zrotation Xrotation
						JOINT rHand
						{
							OFFSET -8.370511 0.000000 0.000000 
							CHANNELS 3 Zrotation Yrotation Xrotation
							End Site
							{
								OFFSET -4.083176 0.000000 0.000000 
							}
						}
					}
				}
			}
		}
	}
	JOINT lThigh
	{
		OFFSET 5.308129 -1.633274 1.361059 
		CHANNELS 3 Xrotation Zrotation Yrotation
		JOINT lShin
		{
			OFFSET -2.041588 -20.007561 0.000000 
			CHANNELS 3 Xrotation Zrotation Yrotation
			JOINT lFoot
			{
				OFFSET 0.000000 -19.190928 -1.224953 
				CHANNELS 3 Xrotation Yrotation Zrotation
				End Site
				{
					OFFSET 0.000000 -2.449906 4.627600 
				}
			}
		}
	}
	JOINT rThigh
	{
		OFFSET -5.308129 -1.633274 1.361059 
		CHANNELS 3 Xrotation Zrotation Yrotation
		JOINT rShin
		{
			OFFSET 2.041588 -20.007561 0.000000 
			CHANNELS 3 Xrotation Zrotation Yrotation
			JOINT rFoot
			{
				OFFSET 0.000000 -19.190928 -1.224953 
				CHANNELS 3 Xrotation Yrotation Zrotation
				End Site
				{
					OFFSET 0.000000 -2.449906 4.627600 
				}
			}
		}
	}
}
MOTION
Frames: 13
Frame Time: 0.016667
0.000000 38.179871 -0.884823 19.098360 1.518404 4.659928 14.782037 -2.782519 1.270879 9.876838 -1.483692 1.738710 6.161914 -1.228558 3.194090 -18.973974 1.625173 -4.786827 0.000000 0.000000 0.000000 -79.995811 -40.133625 -1.938368 -123.734779 -10.503975 -39.966873 -27.638691 0.505045 -2.953012 0.000000 0.000000 0.000000 48.253765 51.117744 -54.697731 105.170074 43.689114 -41.479980 0.121512 3.046706 0.084762 -45.180008 24.664860 1.756911 79.597206 -6.619160 -6.678738 -38.979454 10.978374 -15.884063 -81.182266 -31.090082 1.252498 69.237701 4.970691 6.405795 0.739614 1.333641 1.548255 
0.000000 38.230530 -0.877612 19.272842 1.985632 4.651392 14.782037 -2.782519 1.270879 9.876838 -1.483692 1.738710 6.422319 -1.998881 3.175642 -20.818750 1.127856 -5.362209 0.000000 0.000000 0.000000 -79.791100 -39.906490 -2.680831 -124.098526 -10.488856 -40.195972 -28.325747 0.048400 -2.998596 0.000000 0.000000 0.000000 48.902428 49.835251 -54.232330 107.735825 43.108307 -43.227154 0.111718 3.036954 0.084224 -44.888798 24.128817 2.165102 79.171730 -6.706954 -6.442392 -38.797131 10.969554 -15.951536 -81.281342 -31.266520 1.595164 68.878502 5.068182 6.245633 0.843869 1.590169 1.370791 
0.000000 38.267689 -0.872324 19.433084 2.394437 4.652530 14.782037 -2.782519 1.270879 9.876838 -1.483692 1.738710 6.674593 -2.739954 3.167444 -22.512781 0.689676 -5.908597 0.000000 0.000000 0.000000 -79.509735 -39.627243 -3.228832 -124.459984 -10.481936 -40.280018 -28.917830 -0.546544 -3.089617 0.000000 0.000000 0.000000 49.730286 48.392689 -53.753658 110.077385 42.666691 -44.982273 0.121043 3.036597 0.260275 -44.713772 23.601856 2.382772 78.824593 -6.960804 -6.241225 -38.639450 10.890700 -15.773002 -81.467476 -31.462082 1.955793 68.619675 5.156271 6.301161 0.895192 1.532253 1.338056 
0.000000 38.304844 -0.867036 19.592867 2.803280 4.644572 14.782037 -2.782519 1.270879 9.876838 -1.483692 1.738710 6.927663 -3.481072 3.149990 -24.216818 0.242602 -6.435572 0.000000 0.000000 0.000000 -79.218559 -39.343575 -3.780783 -124.822227 -10.474654 -40.361713 -29.506113 -1.148019 -3.177075 0.000000 0.000000 0.000000 50.516369 46.941990 -53.325188 112.391106 42.164761 -46.720997 0.130442 3.045977 0.436346 -44.529621 23.065666 2.602979 78.456696 -7.204563 -6.046258 -38.463017 10.822532 -15.563933 -81.681381 -31.637621 2.331100 68.351936 5.234562 6.330347 0.929485 1.503372 1.337046 
0.000000 38.327694 -0.863784 19.738564 3.153688 4.646137 14.782037 -2.782519 1.270879 9.876838 -1.483692 1.738710 7.163785 -4.183212 3.133050 -25.784277 -0.135719 -6.933620 0.000000 0.000000 0.000000 -78.918304 -39.062248 -4.153661 -125.164581 -10.324203 -40.309189 -29.897272 -1.886557 -3.140247 0.000000 0.000000 0.000000 51.113892 45.769424 -52.708366 114.395760 41.625633 -48.078907 0.120514 3.026521 0.435792 -44.445545 22.710560 3.076965 78.125481 -7.214539 -5.905160 -38.457752 10.518908 -15.382560 -81.882301 -31.835194 2.603219 68.173027 5.312292 6.349143 0.998151 1.573525 1.361757 
0.000000 38.350540 -0.860533 19.884083 3.494313 4.657633 14.782037 -2.782519 1.270879 9.876838 -1.483692 1.738710 7.400853 -4.875625 3.116631 -27.353842 -0.522937 -7.412424 0.000000 0.000000 0.000000 -78.633186 -38.777714 -4.527746 -125.506531 -10.167062 -40.246906 -30.295311 -2.621428 -3.105921 0.000000 0.000000 0.000000 51.693039 44.587143 -52.120632 116.384796 41.061184 -49.412418 0.100882 3.016904 0.434746 -44.368156 22.359272 3.569955 77.774681 -7.194915 -5.756142 -38.439270 10.232986 -15.213606 -82.087440 -32.020657 2.891268 67.993301 5.390820 6.388273 1.077779 1.620651 1.367312 
0.000000 38.358128 -0.859453 20.004137 3.776634 4.649160 14.782037 -2.782519 1.270879 9.876838 -1.483692 1.738710 7.619965 -5.529004 3.109514 -28.799656 -0.841604 -7.871960 0.000000 0.000000 0.000000 -78.445374 -38.507896 -5.212406 -125.780540 -10.235333 -40.358170 -30.745031 -3.212309 -3.270520 0.000000 0.000000 0.000000 52.410820 43.301861 -51.756565 118.427765 40.676437 -50.833126 0.115867 3.026702 0.347508 -44.305305 22.030684 3.696679 77.591759 -7.302211 -5.616643 -38.258053 10.163881 -15.196863 -82.151138 -32.194611 3.068702 67.899002 5.488103 6.506591 1.037624 1.667610 1.177195 
0.000000 38.365719 -0.858372 20.124111 4.058961 4.640773 14.782037 -2.782519 1.270879 9.876838 -1.483692 1.738710 7.840280 -6.182450 3.094022 -30.239342 -1.169231 -8.312391 0.000000 0.000000 0.000000 -78.272751 -38.235424 -5.877378 -126.050201 -10.315868 -40.468571 -31.190769 -3.800749 -3.417907 0.000000 0.000000 0.000000 53.105648 42.021530 -51.406631 120.445793 40.263546 -52.211727 0.121088 3.046363 0.260295 -44.237652 21.708700 3.828743 77.418457 -7.400163 -5.480700 -38.089424 10.073707 -15.159458 -82.227310 -32.360031 3.242048 67.795151 5.575789 6.618268 1.008316 1.716091 0.997862 
0.000000 38.356941 -0.859622 20.239925 4.273041 4.651945 14.782037 -2.782519 1.270879 9.876838 -1.483692 1.738710 8.035992 -6.777471 3.068205 -31.568171 -1.428638 -8.713808 0.000000 0.000000 0.000000 -78.069923 -38.093227 -6.161838 -126.316971 -10.234707 -40.394081 -31.623789 -4.330538 -3.329195 0.000000 0.000000 0.000000 53.722954 41.002182 -50.995453 122.348579 39.891605 -53.500004 0.135999 3.056252 0.173069 -44.239746 21.440636 4.005438 77.339027 -7.400228 -5.487185 -38.084450 10.075796 -14.966583 -82.350868 -32.352726 3.472638 67.784607 5.673514 6.593175 0.986300 1.589411 1.024535 
0.000000 38.348160 -0.860870 20.355061 4.487177 4.653455 14.782037 -2.782519 1.270879 9.876838 -1.483692 1.738710 8.241266 -7.362700 3.052418 -32.892105 -1.697104 -9.105635 0.000000 0.000000 0.000000 -77.853935 -37.959789 -6.443501 -126.572395 -10.160035 -40.317184 -32.056744 -4.850772 -3.238255 0.000000 0.000000 0.000000 54.317364 39.967709 -50.599823 124.236618 39.491085 -54.765511 0.141100 3.066208 0.085849 -44.249138 21.176731 4.192431 77.260010 -7.409792 -5.481758 -38.086941 10.106907 -14.771797 -82.489273 -32.333752 3.721341 67.783157 5.761700 6.591033 0.983774 1.504068 1.003384 
0.000000 38.321739 -0.864631 20.454872 4.633179 4.654245 14.782037 -2.782519 1.270879 9.876838 -1.483692 1.738710 8.410105 -7.879615 3.045290 -34.130486 -1.878428 -9.458562 0.000000 0.000000 0.000000 -77.672867 -37.692493 -7.030125 -126.861023 -10.155656 -40.710327 -32.489433 -5.080650 -3.232235 0.000000 0.000000 0.000000 54.934643 38.904591 -50.130306 125.872284 39.104939 -55.881275 0.141100 3.066208 0.085849 -44.320065 20.982901 4.328735 77.250931 -7.478268 -5.455684 -38.084404 10.095605 -14.685959 -82.789528 -32.420826 3.873921 67.782814 5.761779 6.600702 1.087292 1.654852 0.911448 
0.000000 38.295315 -0.868392 20.554712 4.769379 4.664786 14.782037 -2.782519 1.270879 9.876838 -1.483692 1.738710 8.588821 -8.396536 3.039713 -35.363647 -2.078613 -9.801518 0.000000 0.000000 0.000000 -77.492386 -37.433323 -7.601395 -127.148781 -10.148752 -41.105679 -32.921459 -5.318833 -3.216634 0.000000 0.000000 0.000000 55.539959 37.830296 -49.679615 127.502525 38.691818 -56.987720 0.141100 3.066208 0.085849 -44.391823 20.779943 4.487904 77.252029 -7.546411 -5.421330 -38.080181 10.106627 -14.603325 -83.085197 -32.538464 4.028573 67.792976 5.761700 6.593235 1.149937 1.827404 0.828295 
0.000000 38.249783 -0.874871 20.638414 4.837513 4.665608 14.782037 -2.782519 1.270879 9.876838 -1.483692 1.738710 8.744049 -8.835528 3.023287 -36.513355 -2.191990 -10.115263 0.000000 0.000000 0.000000 -77.299110 -37.330795 -7.953640 -127.402931 -10.140873 -40.987347 -33.245754 -5.840918 -3.309452 0.000000 0.000000 0.000000 56.077595 36.971966 -49.340515 129.054688 38.389301 -58.059086 0.155676 3.095255 0.174211 -44.587486 20.809322 4.374954 77.412575 -7.643884 -5.360406 -38.192268 9.957449 -14.542014 -83.269249 -32.616383 3.991558 67.880928 5.762394 6.614265 1.227666 1.966522 0.649071 
